<?xml version="1.0" encoding="iso-8859-1"?>
<!-- Generator: Adobe Illustrator 19.0.0, SVG Export Plug-In . SVG Version: 6.00 Build 0)  -->
<svg version="1.1" id="Layer_1" xmlns="http://www.w3.org/2000/svg" xmlns:xlink="http://www.w3.org/1999/xlink" x="0px" y="0px"
	 viewBox="0 0 511.883 511.883" style="enable-background:new 0 0 511.883 511.883;" xml:space="preserve">
<path style="fill:#656D78;" d="M447.902,0H63.998c-5.905,0-10.669,4.779-10.669,10.669v490.544c0,5.905,4.765,10.67,10.669,10.67
	h383.905c5.904,0,10.652-4.765,10.652-10.67V10.669C458.555,4.779,453.806,0,447.902,0z M437.249,21.331v85.316H74.651V21.331
	H437.249z M74.651,245.271V127.97h362.597v117.301H74.651z M437.249,266.61v117.302H74.651V266.61H437.249z M74.651,490.559v-85.324
	h362.597v85.324H74.651z"/>
<g>
	<path style="fill:#ED5564;" d="M138.637,85.316c0-11.764-9.561-21.331-21.323-21.331c-11.763,0-21.323,9.567-21.323,21.331v63.978
		c0,11.763,9.56,21.339,21.323,21.339s21.323-9.576,21.323-21.339V85.316z"/>
	<path style="fill:#ED5564;" d="M405.255,85.316c0-11.764-9.592-21.331-21.34-21.331s-21.338,9.567-21.338,21.331v63.978
		c0,11.763,9.59,21.339,21.338,21.339s21.34-9.576,21.34-21.339V85.316z"/>
	<path style="fill:#ED5564;" d="M191.967,85.316c0-11.764-9.576-21.331-21.339-21.331s-21.323,9.567-21.323,21.331v63.978
		c0,11.763,9.56,21.339,21.323,21.339s21.339-9.576,21.339-21.339V85.316z"/>
	<path style="fill:#ED5564;" d="M245.283,85.316c0-11.764-9.576-21.331-21.323-21.331c-11.763,0-21.339,9.567-21.339,21.331v63.978
		c0,11.763,9.576,21.339,21.339,21.339c11.747,0,21.323-9.576,21.323-21.339V85.316z"/>
</g>
<path style="fill:#FC6E51;" d="M138.637,223.948c0-11.763-9.561-21.323-21.323-21.323c-11.763,0-21.323,9.561-21.323,21.323v63.985
	c0,11.763,9.56,21.323,21.323,21.323s21.323-9.561,21.323-21.323V223.948z"/>
<g>
	<path style="fill:#ED5564;" d="M138.637,362.587c0-11.763-9.561-21.339-21.323-21.339c-11.763,0-21.323,9.576-21.323,21.339v63.986
		c0,11.763,9.56,21.323,21.323,21.323s21.323-9.561,21.323-21.323V362.587z"/>
	<path style="fill:#ED5564;" d="M415.909,362.587c0-11.763-9.561-21.339-21.338-21.339c-11.748,0-21.309,9.576-21.309,21.339v63.986
		c0,11.763,9.561,21.323,21.309,21.323c11.777,0,21.338-9.561,21.338-21.323V362.587z"/>
	<path style="fill:#ED5564;" d="M362.578,362.587c0-11.763-9.561-21.339-21.309-21.339c-11.779,0-21.338,9.576-21.338,21.339v63.986
		c0,11.763,9.559,21.323,21.338,21.323c11.748,0,21.309-9.561,21.309-21.323V362.587z"/>
	<path style="fill:#ED5564;" d="M309.277,362.587c0-11.763-9.592-21.339-21.34-21.339c-11.746,0-21.33,9.576-21.33,21.339v63.986
		c0,11.763,9.584,21.323,21.33,21.323c11.748,0,21.34-9.561,21.34-21.323V362.587z"/>
	<path style="fill:#ED5564;" d="M255.952,362.587c0-11.763-9.576-21.339-21.338-21.339c-11.763,0-21.323,9.576-21.323,21.339v63.986
		c0,11.763,9.56,21.323,21.323,21.323s21.338-9.561,21.338-21.323V362.587z"/>
</g>
<g>
	<path style="fill:#FC6E51;" d="M415.909,223.948c0-11.763-9.561-21.323-21.338-21.323c-11.748,0-21.309,9.561-21.309,21.323v63.985
		c0,11.763,9.561,21.323,21.309,21.323c11.777,0,21.338-9.561,21.338-21.323V223.948z"/>
	<path style="fill:#FC6E51;" d="M362.578,223.948c0-11.763-9.561-21.323-21.309-21.323c-11.779,0-21.338,9.561-21.338,21.323v63.985
		c0,11.763,9.559,21.323,21.338,21.323c11.748,0,21.309-9.561,21.309-21.323V223.948z"/>
	<path style="fill:#FC6E51;" d="M309.277,223.948c0-11.763-9.592-21.323-21.34-21.323c-11.746,0-21.33,9.561-21.33,21.323v63.985
		c0,11.763,9.584,21.323,21.33,21.323c11.748,0,21.34-9.561,21.34-21.323V223.948z"/>
</g>
<g>
</g>
<g>
</g>
<g>
</g>
<g>
</g>
<g>
</g>
<g>
</g>
<g>
</g>
<g>
</g>
<g>
</g>
<g>
</g>
<g>
</g>
<g>
</g>
<g>
</g>
<g>
</g>
<g>
</g>
</svg>
